<?xml version="1.0" encoding="UTF-8"?>
<svg width="16px" height="16px" viewBox="0 0 16 16" version="1.1" xmlns="http://www.w3.org/2000/svg" xmlns:xlink="http://www.w3.org/1999/xlink">
    <title>添加</title>
    <g id="页面-1" stroke="none" stroke-width="1" fill-rule="evenodd">
        <g id="项目分析备份-2" transform="translate(-713.000000, -153.000000)" fill="#0E83FF" fill-rule="nonzero">
            <g id="2我的待办备份-2" transform="translate(20.000000, 31.000000)">
                <g id="表" transform="translate(25.000000, 66.000000)">
                    <g id="添加" transform="translate(668.000000, 56.000000)">
                        <path d="M8,0 C12.418278,0 16,3.581722 16,8 C16,12.418278 12.418278,16 8,16 C3.581722,16 0,12.418278 0,8 C0,3.581722 3.581722,0 8,0 Z M8,1.45454545 C4.38504527,1.45454545 1.45454545,4.38504527 1.45454545,8 C1.45454545,11.6149547 4.38504527,14.5454545 8,14.5454545 C11.6149547,14.5454545 14.5454545,11.6149547 14.5454545,8 C14.5454545,4.38504527 11.6149547,1.45454545 8,1.45454545 Z M8,4.36363636 C8.35703257,4.36363636 8.65397581,4.62090932 8.71555539,4.9601809 L8.72727273,5.09090909 L8.727,7.272 L10.9090909,7.27272727 C11.3107525,7.27272727 11.6363636,7.59833836 11.6363636,8 C11.6363636,8.35703257 11.3790907,8.65397581 11.0398191,8.71555539 L10.9090909,8.72727273 L8.727,8.727 L8.72727273,10.9090909 C8.72727273,11.3107525 8.40166164,11.6363636 8,11.6363636 C7.64296743,11.6363636 7.34602419,11.3790907 7.28444461,11.0398191 L7.27272727,10.9090909 L7.272,8.727 L5.09090909,8.72727273 C4.68924745,8.72727273 4.36363636,8.40166164 4.36363636,8 C4.36363636,7.64296743 4.62090932,7.34602419 4.9601809,7.28444461 L5.09090909,7.27272727 L7.272,7.272 L7.27272727,5.09090909 C7.27272727,4.68924745 7.59833836,4.36363636 8,4.36363636 Z" id="形状结合"></path>
                    </g>
                </g>
            </g>
        </g>
    </g>
</svg>