<svg t="1662349323757" class="icon" viewBox="0 0 1024 1024" version="1.1" xmlns="http://www.w3.org/2000/svg" p-id="4565"
  width="1em" height="1em">
  <path
    d="M922.3 860c-11.8 0-22.6-6.5-28.2-16.8-104-186.4-250.5-204-431-205.9v168.8c0 12.9-7.5 24.7-19 30-4.2 2-8.7 2.9-13.4 2.9-8 0-15.6-2.9-21.5-8.3L80.4 536.8c-6.9-6.1-10.9-15-11.1-24.2-0.2-9.2 3.6-18.2 10.3-24.6L408.4 173c6-5.8 13.9-9 22.2-9 4.5 0 8.9 0.9 13 2.8 11.9 5.4 19.5 17.3 19.5 30.3V340c85 5.1 162.7 30.5 231.1 75.5 61.3 40.3 115 96.2 159.7 166.2C926.6 695.4 951.4 808 954 820.5v0.1c3.2 15.7-5.3 31.5-20.2 37.4h-0.1c-3.7 1.3-7.5 2-11.4 2z m-524-126.9v-129c0-18.2 14.6-33 32.4-33 117.5 0 212.8 6.3 295.9 37.2 35.6 13 68.8 31 99 53.7-8.5-16-17.5-31.4-26.8-45.9-90.3-140-214.1-211-368.1-211-8.8-0.1-17-3.6-23.1-9.8-6.1-6.2-9.4-14.5-9.3-23.3V273.4L150 511.1l248.3 222z"
    p-id="4566"></path>
</svg>
