<svg xmlns="http://www.w3.org/2000/svg" xmlns:xlink="http://www.w3.org/1999/xlink" width="1em" height="1em"
  viewBox="0 0 19 19" version="1.1">
  <title>删除</title>
  <g id="页面-1" stroke="none" stroke-width="1" fill="none" fill-rule="evenodd">
    <g id="hover状态-删除模块" transform="translate(-443.000000, -229.000000)">
      <g id="删除" transform="translate(438.000000, 225.000000)">
        <g id="删除" transform="translate(5.000000, 4.000000)">
          <rect id="矩形" x="0" y="0" width="12" height="12" />
          <path
            d="M16.0595023,3.85479123 C16.5787955,3.85479123 17,4.28038639 17,4.80509274 C17,5.32979909 16.5807188,5.75539424 16.0614257,5.75539424 L15.399,5.755 L15.3999811,15.1317067 C15.4039962,16.7130234 14.1282247,18 12.5626882,18 L5.44332022,18 C3.87577142,18 2.6,16.7130234 2.6,15.1317067 L2.599,5.755 L1.94049766,5.75539424 C1.42120447,5.75539424 1,5.32979909 1,4.80509274 C1,4.28038639 1.42120447,3.85479123 1.94049766,3.85479123 L16.0595023,3.85479123 Z M13.4360081,6.07821207 L4.57201261,6.07821207 L4.57201261,15.1317067 C4.57201261,15.6168604 4.96440287,16.012697 5.44533248,16.012697 L12.5626882,16.012697 C13.0436178,16.012697 13.4360081,15.6168604 13.4360081,15.1317067 L13.4360081,6.07821207 Z M7.4,7.65794061 C7.84171779,7.65794061 8.2,8.11905035 8.2,8.6875418 L8.2,12.8101576 C8.2,13.3786491 7.84171779,13.8397588 7.4,13.8397588 C6.95828221,13.8397588 6.6,13.3786491 6.6,12.8101576 L6.6,8.6875418 C6.6,8.11905035 6.95828221,7.65794061 7.4,7.65794061 Z M10.5999972,7.65794061 C11.0417135,7.65794061 11.4,8.11905035 11.4,8.6875418 L11.4,12.8101576 C11.4016304,13.3786491 11.0417135,13.8397588 10.5999972,13.8397588 C10.158281,13.8397588 9.8,13.3786491 9.8,12.8101576 L9.8,8.6875418 C9.8,8.11905035 10.158281,7.65794061 10.5999972,7.65794061 Z M10.7341547,1 C11.4406143,1 12.0136314,1.42559515 12.0136314,1.95030151 C12.0136314,2.47500786 11.4406143,2.90254637 10.7341547,2.90254637 L6.89310814,2.90254637 C6.18664862,2.90254637 5.61363145,2.47695122 5.61363145,1.95224486 C5.61363145,1.42753851 6.18664862,1 6.89310814,1 L10.7341547,1 Z"
            id="形状结合" fill="currentcolor" fill-rule="nonzero" />
        </g>
      </g>
    </g>
  </g>
</svg>
