<?xml version="1.0" standalone="no"?>
<!DOCTYPE svg PUBLIC "-//W3C//DTD SVG 20010904//EN"
 "http://www.w3.org/TR/2001/REC-SVG-20010904/DTD/svg10.dtd">
<svg version="1.0" xmlns="http://www.w3.org/2000/svg"
 width="96.000000pt" height="96.000000pt" viewBox="0 0 96.000000 96.000000"
 preserveAspectRatio="xMidYMid meet">

<g transform="translate(0.000000,96.000000) scale(0.100000,-0.100000)"
fill="#000000" stroke="none">
<path d="M407 834 c-4 -4 -7 -31 -7 -60 l0 -53 -117 -3 -118 -3 -3 -57 -3 -57
-57 -3 -57 -3 -3 -56 c-2 -48 -6 -58 -24 -62 -19 -5 -20 -11 -15 -64 19 -179
118 -277 291 -290 186 -13 389 86 497 244 17 24 37 43 46 43 25 0 101 48 114
71 15 29 -3 46 -67 61 -41 10 -53 18 -63 40 -7 16 -24 36 -38 45 -22 15 -25
15 -41 -1 -11 -11 -19 -39 -22 -79 -4 -48 -9 -63 -22 -65 -14 -3 -17 6 -20 55
l-3 58 -57 3 -57 3 -3 117 -3 117 -70 3 c-39 1 -74 0 -78 -4z m113 -74 l0 -40
-40 0 -40 0 0 40 0 40 40 0 40 0 0 -40z m-240 -120 l0 -40 -40 0 -40 0 0 40 0
40 40 0 40 0 0 -40z m120 0 l0 -40 -40 0 -40 0 0 40 0 40 40 0 40 0 0 -40z
m120 0 l0 -40 -40 0 -40 0 0 40 0 40 40 0 40 0 0 -40z m278 -104 c8 -28 12
-31 50 -32 73 -1 69 -22 -10 -52 -35 -13 -57 -32 -93 -80 -89 -118 -234 -197
-385 -209 -176 -13 -292 71 -315 230 l-7 47 339 0 c271 0 343 3 358 14 14 10
20 30 23 75 4 51 7 59 18 50 8 -6 18 -26 22 -43z m-638 -16 l0 -40 -40 0 -40
0 0 40 0 40 40 0 40 0 0 -40z m120 0 l0 -40 -40 0 -40 0 0 40 0 40 40 0 40 0
0 -40z m120 0 l0 -40 -40 0 -40 0 0 40 0 40 40 0 40 0 0 -40z m120 0 l0 -40
-40 0 -40 0 0 40 0 40 40 0 40 0 0 -40z m120 0 l0 -40 -40 0 -40 0 0 40 0 40
40 0 40 0 0 -40z"/>
<path d="M170 345 c-15 -18 -10 -45 13 -59 34 -22 73 27 47 59 -16 19 -44 19
-60 0z"/>
</g>
</svg>
