<?xml version="1.0" encoding="UTF-8"?>
<svg width="16px" height="16px" viewBox="0 0 16 16" version="1.1" xmlns="http://www.w3.org/2000/svg"
  xmlns:xlink="http://www.w3.org/1999/xlink">
  <title>频道成员</title>
  <g id="页面-1" stroke="none" stroke-width="1" fill-rule="evenodd">
    <g id="主框架-方案1" transform="translate(-486.000000, -75.000000)">
      <g id="频道标题栏" transform="translate(200.000000, 60.000000)">
        <g id="编组-4" transform="translate(286.000000, 15.000000)">
          <path
            d="M8.00003984,0 C3.58178249,0 0,3.58179652 0,8 C0,12.4182035 3.58178249,16 8.00003984,16 C12.4182494,16 16,12.4182035 16,8 C16,3.58176465 12.4182494,0 8.00003984,0 Z"
            id="路径"></path>
          <path
            d="M7.94810097,9 C8.41732214,9 8.83535361,9.04242671 9.20759363,9.11371669 C9.10108533,9.32702758 9.03213039,9.56241105 9.00880874,9.81111305 L9,10 L9,11 C9,11.364732 9.0976323,11.7066608 9.26818814,12.0010775 L4.54163718,12 C4.24345364,12 4,11.7682093 4,11.4802817 L4,10.8615694 C4,10.7257545 4.05472989,10.5953722 4.15475348,10.4993964 C4.5831564,10.0828974 5.89101203,9 7.94810097,9 Z M12.5,11 C12.7761424,11 13,11.2238576 13,11.5 C13,11.7761424 12.7761424,12 12.5,12 L10.5,12 C10.2238576,12 10,11.7761424 10,11.5 C10,11.2238576 10.2238576,11 10.5,11 L12.5,11 Z M12.5,9 C12.7761424,9 13,9.22385763 13,9.5 C13,9.77614237 12.7761424,10 12.5,10 L10.5,10 C10.2238576,10 10,9.77614237 10,9.5 C10,9.22385763 10.2238576,9 10.5,9 L12.5,9 Z M8,4 C9.1045695,4 10,4.8954305 10,6 C10,7.1045695 9.1045695,8 8,8 C6.8954305,8 6,7.1045695 6,6 C6,4.8954305 6.8954305,4 8,4 Z"
            id="形状结合" fill="#FFFFFF" fill-rule="nonzero"></path>
        </g>
      </g>
    </g>
  </g>
</svg>