<?xml version="1.0" encoding="UTF-8"?>
<svg width="16px" height="16px" viewBox="0 0 16 16" version="1.1" xmlns="http://www.w3.org/2000/svg"
  xmlns:xlink="http://www.w3.org/1999/xlink">
  <title>形状</title>
  <g id="页面-1" stroke="none" stroke-width="1" fill-rule="evenodd">
    <g id="主框架-方案1" transform="translate(-510.000000, -75.000000)" fill-rule="nonzero">
      <g id="频道标题栏" transform="translate(200.000000, 60.000000)">
        <path
          d="M318.00004,15 C313.581782,15 310,18.5817965 310,23 C310,27.4182035 313.581782,31 318.00004,31 C322.418249,31 326,27.4182035 326,23 C326,18.5817647 322.418249,15 318.00004,15 Z M317.613998,26.1941002 L317.193171,26.6014693 C316.810801,26.9714689 316.30836,27.1562247 315.80631,27.1562247 C315.304093,27.1562247 314.80207,26.9713992 314.41991,26.6016087 C314.048207,26.2419972 313.843789,25.7637934 313.843789,25.2550526 C313.843789,24.7459633 314.048235,24.26762 314.419701,23.9077994 L315.968059,22.4099248 C316.930635,21.4787974 318.035731,21.3450342 318.783808,22.0685798 C318.985437,22.2638632 318.986692,22.581922 318.786318,22.7786277 C318.585944,22.9755843 318.260005,22.9768672 318.057888,22.7812073 C317.61807,22.3558506 317.014577,22.8125809 316.693686,23.1229707 L315.145355,24.6209568 C314.97015,24.7901652 314.874049,25.0154976 314.874049,25.2549829 C314.874049,25.4942591 314.97015,25.719452 315.145355,25.8887999 C315.509779,26.2415092 316.102813,26.2410212 316.467195,25.8887999 L316.88805,25.4813611 C317.089916,25.2862171 317.416106,25.2871932 317.616508,25.4839407 C317.816951,25.6807579 317.815864,25.9988168 317.613998,26.1941002 Z M321.580118,22.3569801 L319.928393,23.9546646 C319.417976,24.4486249 318.881624,24.6980801 318.373578,24.6980801 C317.958747,24.6980801 317.562712,24.5317302 317.216206,24.1962415 C317.014131,24.000749 317.012876,23.6827598 317.213627,23.4860821 C317.414028,23.2892648 317.740009,23.2879402 317.941875,23.4834327 C318.092957,23.6297036 318.44762,23.9727916 319.202473,23.2419952 L320.854687,21.6441434 C321.029543,21.4746979 321.125896,21.2493237 321.125896,21.0098802 C321.125896,20.770604 321.029683,20.5454808 320.854199,20.3758541 C320.525332,20.0577673 320.02105,19.9030884 319.63578,20.2760859 L319.111768,20.7834602 C318.909861,20.9787018 318.583852,20.9776281 318.383269,20.7808806 C318.182686,20.5839658 318.184011,20.2660464 318.386058,20.0705817 L318.910279,19.5632353 C319.653628,18.8437753 320.77688,18.886053 321.580104,19.6632126 C321.95157,20.0229217 322.156266,20.5010279 322.156266,21.0098663 C322.156266,21.5189556 321.951584,21.997257 321.580118,22.3569801 Z"
          id="形状"></path>
      </g>
    </g>
  </g>
</svg>