<?xml version="1.0" encoding="UTF-8"?>
<svg width="14px" height="10px" viewBox="0 0 14 10" version="1.1" xmlns="http://www.w3.org/2000/svg"
  xmlns:xlink="http://www.w3.org/1999/xlink">
  <title>收起</title>
  <g id="页面-1" stroke="none" stroke-width="1" fill-rule="evenodd">
    <g id="收起" transform="translate(-231.000000, -133.000000)" fill-rule="nonzero">
      <g id="编组-9" transform="translate(224.000000, 121.000000)">
        <path
          d="M16,20 C16.5522847,20 17,20.4477153 17,21 C17,21.5522847 16.5522847,22 16,22 L8,22 C7.44771525,22 7,21.5522847 7,21 C7,20.4477153 7.44771525,20 8,20 L16,20 Z M20.4635536,14.0792643 C20.6486268,13.9430108 21,13.9422474 21,14.403852 L21,14.403852 L21,18.6164816 C21,18.9977166 20.6486268,19.0696744 20.4635536,18.9418327 L20.4635536,18.9418327 L17.1331442,16.7402056 C16.9614781,16.6131273 16.9498543,16.3995441 17.1331442,16.2808913 L17.1331442,16.2808913 Z M13,16 C13.5522847,16 14,16.4477153 14,17 C14,17.5522847 13.5522847,18 13,18 L8,18 C7.44771525,18 7,17.5522847 7,17 C7,16.4477153 7.44771525,16 8,16 L13,16 Z M16,12 C16.5522847,12 17,12.4477153 17,13 C17,13.5522847 16.5522847,14 16,14 L8,14 C7.44771525,14 7,13.5522847 7,13 C7,12.4477153 7.44771525,12 8,12 L16,12 Z"
          id="收起" transform="translate(14.000000, 17.000000) scale(-1, 1) translate(-14.000000, -17.000000) "></path>
      </g>
    </g>
  </g>
</svg>
