<?xml version="1.0" encoding="UTF-8"?>
<svg width="11px" height="12px" viewBox="0 0 11 12" version="1.1" xmlns="http://www.w3.org/2000/svg"
  xmlns:xlink="http://www.w3.org/1999/xlink">
  <title>退出登录</title>
  <g id="页面-1" stroke="none" stroke-width="1" fill-rule="evenodd">
    <g id="主框架-方案1备份" transform="translate(-91.000000, -264.000000)" fill-rule="nonzero">
      <g id="编组-2备份" transform="translate(10.000000, 59.117554)">
        <g id="退出" transform="translate(81.000000, 204.882446)">
          <path
            d="M0,6.00072368 L0,11.3081655 C0,11.6902666 0.382874284,12 0.857376602,12 L5.14098718,12 C5.61385329,12 5.99836379,11.6902666 5.99836379,11.3081655 C5.99836379,10.9260644 5.6154895,10.616331 5.14098718,10.616331 L1.7147532,10.616331 L1.7147532,1.38366904 L5.1426234,1.38366904 C5.6154895,1.38366904 6,1.07393559 6,0.691834519 C6,0.309733446 5.61712572,0 5.1426234,0 L0.857376602,0 C0.384510499,0 0,0.309733446 0,0.691834519 L0,6.00072368 Z M10.7831507,5.44171458 C10.9166981,5.57971772 11,5.77888134 11,6 C11,6.22268688 10.9166981,6.42028228 10.7831507,6.55828542 L8.59614658,8.80710925 C8.47978844,8.92629378 8.325085,9 8.15715905,9 C7.79486211,9 7.50132225,8.66283325 7.50132225,8.24882384 C7.50132225,8.02770518 7.58594635,7.82854156 7.71949377,7.69210664 L8.63581413,6.74960795 L4.6558368,6.74960795 C4.29353986,6.74960795 4,6.41400941 4,6 C4,5.58599059 4.29353986,5.25039205 4.6558368,5.25039205 L8.63316963,5.25039205 L7.71684926,4.30789336 C7.58330185,4.17145844 7.49867775,3.97072661 7.49867775,3.74960795 C7.49867775,3.33559854 7.79353986,3 8.15451454,3 C8.32376275,3 8.47714394,3.072138 8.59350208,3.19289075 L10.7831507,5.44171458 Z"
            id="退出登录"></path>
        </g>
      </g>
    </g>
  </g>
</svg>